<?xml version="1.0" encoding="UTF-8"?>
<!-- Do not edit this file with editors other than draw.io -->
<!DOCTYPE svg PUBLIC "-//W3C//DTD SVG 1.1//EN" "http://www.w3.org/Graphics/SVG/1.1/DTD/svg11.dtd">
<svg xmlns="http://www.w3.org/2000/svg" xmlns:xlink="http://www.w3.org/1999/xlink" version="1.1" width="361px" height="241px" viewBox="-0.5 -0.5 361 241" content="&lt;mxfile host=&quot;Electron&quot; agent=&quot;Mozilla/5.0 (Windows NT 10.0; Win64; x64) AppleWebKit/537.36 (KHTML, like Gecko) draw.io/24.7.5 Chrome/126.0.6478.183 Electron/31.3.0 Safari/537.36&quot; version=&quot;24.7.5&quot; scale=&quot;1&quot; border=&quot;0&quot;&gt;&#10;  &lt;diagram name=&quot;第 1 页&quot; id=&quot;jy1TVek64ZTSS9d4jHHz&quot;&gt;&#10;    &lt;mxGraphModel dx=&quot;1185&quot; dy=&quot;683&quot; grid=&quot;1&quot; gridSize=&quot;10&quot; guides=&quot;1&quot; tooltips=&quot;1&quot; connect=&quot;1&quot; arrows=&quot;1&quot; fold=&quot;1&quot; page=&quot;1&quot; pageScale=&quot;1&quot; pageWidth=&quot;827&quot; pageHeight=&quot;1169&quot; math=&quot;0&quot; shadow=&quot;0&quot;&gt;&#10;      &lt;root&gt;&#10;        &lt;mxCell id=&quot;0&quot; /&gt;&#10;        &lt;mxCell id=&quot;1&quot; parent=&quot;0&quot; /&gt;&#10;        &lt;mxCell id=&quot;S7aDT1qXhI9r-aNUoDuf-14&quot; value=&quot;&quot; style=&quot;ellipse;whiteSpace=wrap;html=1;aspect=fixed;sketch=1;curveFitting=1;jiggle=2;shadow=0;fillColor=none;&quot; vertex=&quot;1&quot; parent=&quot;1&quot;&gt;&#10;          &lt;mxGeometry x=&quot;400&quot; y=&quot;40&quot; width=&quot;40&quot; height=&quot;40&quot; as=&quot;geometry&quot; /&gt;&#10;        &lt;/mxCell&gt;&#10;        &lt;mxCell id=&quot;S7aDT1qXhI9r-aNUoDuf-15&quot; value=&quot;&quot; style=&quot;ellipse;whiteSpace=wrap;html=1;aspect=fixed;sketch=1;curveFitting=1;jiggle=2;shadow=0;fillColor=none;&quot; vertex=&quot;1&quot; parent=&quot;1&quot;&gt;&#10;          &lt;mxGeometry x=&quot;280&quot; y=&quot;160&quot; width=&quot;40&quot; height=&quot;40&quot; as=&quot;geometry&quot; /&gt;&#10;        &lt;/mxCell&gt;&#10;        &lt;mxCell id=&quot;S7aDT1qXhI9r-aNUoDuf-16&quot; value=&quot;&quot; style=&quot;ellipse;whiteSpace=wrap;html=1;aspect=fixed;sketch=1;curveFitting=1;jiggle=2;shadow=0;fillColor=none;&quot; vertex=&quot;1&quot; parent=&quot;1&quot;&gt;&#10;          &lt;mxGeometry x=&quot;520&quot; y=&quot;160&quot; width=&quot;40&quot; height=&quot;40&quot; as=&quot;geometry&quot; /&gt;&#10;        &lt;/mxCell&gt;&#10;        &lt;mxCell id=&quot;S7aDT1qXhI9r-aNUoDuf-17&quot; value=&quot;&quot; style=&quot;ellipse;whiteSpace=wrap;html=1;aspect=fixed;sketch=1;curveFitting=1;jiggle=2;shadow=0;fillColor=none;&quot; vertex=&quot;1&quot; parent=&quot;1&quot;&gt;&#10;          &lt;mxGeometry x=&quot;200&quot; y=&quot;240&quot; width=&quot;40&quot; height=&quot;40&quot; as=&quot;geometry&quot; /&gt;&#10;        &lt;/mxCell&gt;&#10;        &lt;mxCell id=&quot;S7aDT1qXhI9r-aNUoDuf-18&quot; value=&quot;&quot; style=&quot;ellipse;whiteSpace=wrap;html=1;aspect=fixed;sketch=1;curveFitting=1;jiggle=2;shadow=0;fillColor=none;&quot; vertex=&quot;1&quot; parent=&quot;1&quot;&gt;&#10;          &lt;mxGeometry x=&quot;360&quot; y=&quot;240&quot; width=&quot;40&quot; height=&quot;40&quot; as=&quot;geometry&quot; /&gt;&#10;        &lt;/mxCell&gt;&#10;        &lt;mxCell id=&quot;S7aDT1qXhI9r-aNUoDuf-19&quot; value=&quot;&quot; style=&quot;endArrow=none;html=1;rounded=0;entryX=0;entryY=0.75;entryDx=0;entryDy=0;entryPerimeter=0;sketch=1;curveFitting=1;jiggle=2;&quot; edge=&quot;1&quot; parent=&quot;1&quot; source=&quot;S7aDT1qXhI9r-aNUoDuf-15&quot; target=&quot;S7aDT1qXhI9r-aNUoDuf-14&quot;&gt;&#10;          &lt;mxGeometry width=&quot;50&quot; height=&quot;50&quot; relative=&quot;1&quot; as=&quot;geometry&quot;&gt;&#10;            &lt;mxPoint x=&quot;320&quot; y=&quot;400&quot; as=&quot;sourcePoint&quot; /&gt;&#10;            &lt;mxPoint x=&quot;370&quot; y=&quot;350&quot; as=&quot;targetPoint&quot; /&gt;&#10;          &lt;/mxGeometry&gt;&#10;        &lt;/mxCell&gt;&#10;        &lt;mxCell id=&quot;S7aDT1qXhI9r-aNUoDuf-20&quot; value=&quot;&quot; style=&quot;endArrow=none;html=1;rounded=0;entryX=0;entryY=1;entryDx=0;entryDy=0;exitX=1;exitY=0;exitDx=0;exitDy=0;sketch=1;curveFitting=1;jiggle=2;&quot; edge=&quot;1&quot; parent=&quot;1&quot; source=&quot;S7aDT1qXhI9r-aNUoDuf-17&quot; target=&quot;S7aDT1qXhI9r-aNUoDuf-15&quot;&gt;&#10;          &lt;mxGeometry width=&quot;50&quot; height=&quot;50&quot; relative=&quot;1&quot; as=&quot;geometry&quot;&gt;&#10;            &lt;mxPoint x=&quot;320&quot; y=&quot;400&quot; as=&quot;sourcePoint&quot; /&gt;&#10;            &lt;mxPoint x=&quot;370&quot; y=&quot;350&quot; as=&quot;targetPoint&quot; /&gt;&#10;          &lt;/mxGeometry&gt;&#10;        &lt;/mxCell&gt;&#10;        &lt;mxCell id=&quot;S7aDT1qXhI9r-aNUoDuf-21&quot; value=&quot;&quot; style=&quot;endArrow=none;html=1;rounded=0;entryX=1.043;entryY=0.737;entryDx=0;entryDy=0;sketch=1;curveFitting=1;jiggle=2;entryPerimeter=0;&quot; edge=&quot;1&quot; parent=&quot;1&quot; source=&quot;S7aDT1qXhI9r-aNUoDuf-16&quot; target=&quot;S7aDT1qXhI9r-aNUoDuf-14&quot;&gt;&#10;          &lt;mxGeometry width=&quot;50&quot; height=&quot;50&quot; relative=&quot;1&quot; as=&quot;geometry&quot;&gt;&#10;            &lt;mxPoint x=&quot;244&quot; y=&quot;256&quot; as=&quot;sourcePoint&quot; /&gt;&#10;            &lt;mxPoint x=&quot;296&quot; y=&quot;204&quot; as=&quot;targetPoint&quot; /&gt;&#10;          &lt;/mxGeometry&gt;&#10;        &lt;/mxCell&gt;&#10;        &lt;mxCell id=&quot;S7aDT1qXhI9r-aNUoDuf-22&quot; value=&quot;&quot; style=&quot;endArrow=none;html=1;rounded=0;entryX=1;entryY=1;entryDx=0;entryDy=0;sketch=1;curveFitting=1;jiggle=2;&quot; edge=&quot;1&quot; parent=&quot;1&quot; source=&quot;S7aDT1qXhI9r-aNUoDuf-18&quot; target=&quot;S7aDT1qXhI9r-aNUoDuf-15&quot;&gt;&#10;          &lt;mxGeometry width=&quot;50&quot; height=&quot;50&quot; relative=&quot;1&quot; as=&quot;geometry&quot;&gt;&#10;            &lt;mxPoint x=&quot;254&quot; y=&quot;266&quot; as=&quot;sourcePoint&quot; /&gt;&#10;            &lt;mxPoint x=&quot;306&quot; y=&quot;214&quot; as=&quot;targetPoint&quot; /&gt;&#10;          &lt;/mxGeometry&gt;&#10;        &lt;/mxCell&gt;&#10;        &lt;mxCell id=&quot;S7aDT1qXhI9r-aNUoDuf-23&quot; value=&quot;&quot; style=&quot;ellipse;whiteSpace=wrap;html=1;aspect=fixed;sketch=1;curveFitting=1;jiggle=2;shadow=0;fillColor=none;&quot; vertex=&quot;1&quot; parent=&quot;1&quot;&gt;&#10;          &lt;mxGeometry x=&quot;436&quot; y=&quot;240&quot; width=&quot;40&quot; height=&quot;40&quot; as=&quot;geometry&quot; /&gt;&#10;        &lt;/mxCell&gt;&#10;        &lt;mxCell id=&quot;S7aDT1qXhI9r-aNUoDuf-24&quot; value=&quot;&quot; style=&quot;endArrow=none;html=1;rounded=0;entryX=0.089;entryY=0.711;entryDx=0;entryDy=0;sketch=1;curveFitting=1;jiggle=2;entryPerimeter=0;&quot; edge=&quot;1&quot; parent=&quot;1&quot; source=&quot;S7aDT1qXhI9r-aNUoDuf-23&quot; target=&quot;S7aDT1qXhI9r-aNUoDuf-16&quot;&gt;&#10;          &lt;mxGeometry width=&quot;50&quot; height=&quot;50&quot; relative=&quot;1&quot; as=&quot;geometry&quot;&gt;&#10;            &lt;mxPoint x=&quot;330&quot; y=&quot;266&quot; as=&quot;sourcePoint&quot; /&gt;&#10;            &lt;mxPoint x=&quot;390&quot; y=&quot;194&quot; as=&quot;targetPoint&quot; /&gt;&#10;          &lt;/mxGeometry&gt;&#10;        &lt;/mxCell&gt;&#10;      &lt;/root&gt;&#10;    &lt;/mxGraphModel&gt;&#10;  &lt;/diagram&gt;&#10;&lt;/mxfile&gt;&#10;" style="background-color: rgb(24, 20, 29);"><defs/><rect fill="#18141D" width="100%" height="100%" x="0" y="0"/><g><g data-cell-id="0"><g data-cell-id="1"><g data-cell-id="S7aDT1qXhI9r-aNUoDuf-14"><g><ellipse cx="220" cy="20" rx="20" ry="20" fill="none" stroke="none" pointer-events="all"/><path d="M 238.33 7.86 C 240.88 11.58 241.25 18.93 240.6 23.18 C 239.94 27.43 237.76 30.68 234.4 33.35 C 231.04 36.03 224.75 38.74 220.45 39.22 C 216.15 39.7 211.92 38.56 208.6 36.21 C 205.28 33.87 201.58 29.36 200.53 25.16 C 199.48 20.96 200.37 14.88 202.29 10.99 C 204.22 7.11 208.47 3.41 212.09 1.85 C 215.72 0.29 219.81 -0.16 224.02 1.65 C 228.24 3.47 235.12 10.2 237.4 12.73 C 239.67 15.26 237.85 16.71 237.68 16.81 M 214.12 2.33 C 217.9 0.4 224.12 -1.61 228.08 -0.56 C 232.04 0.5 235.75 4.82 237.86 8.65 C 239.97 12.49 241.79 17.62 240.72 22.43 C 239.65 27.24 234.89 34.24 231.46 37.52 C 228.03 40.79 223.91 42.43 220.14 42.07 C 216.36 41.7 212.16 38.22 208.82 35.32 C 205.47 32.42 201.11 28.61 200.06 24.67 C 199.01 20.72 199.71 15.18 202.5 11.66 C 205.29 8.14 215.03 4.94 216.79 3.54 C 218.55 2.14 213.66 3.36 213.05 3.23" fill="none" stroke="rgb(240, 240, 240)" stroke-linejoin="round" stroke-linecap="round" stroke-miterlimit="10" pointer-events="all"/></g></g><g data-cell-id="S7aDT1qXhI9r-aNUoDuf-15"><g><ellipse cx="100" cy="140" rx="20" ry="20" fill="none" stroke="none" pointer-events="all"/><path d="M 108.05 121.38 C 112.46 122.66 118.22 127.32 120.23 131.45 C 122.24 135.57 121.33 141.93 120.12 146.13 C 118.92 150.32 116.91 154.5 113.01 156.61 C 109.1 158.72 101.33 159.51 96.68 158.79 C 92.03 158.07 88.08 155.12 85.1 152.31 C 82.12 149.49 79.05 145.83 78.8 141.88 C 78.55 137.94 80.95 132.29 83.62 128.63 C 86.3 124.96 89.31 119.19 94.86 119.9 C 100.4 120.62 112.62 128.58 116.91 132.92 C 121.19 137.26 120.69 145.84 120.56 145.96 M 86.62 126.25 C 89.16 123.01 95.85 118.96 100.07 118.61 C 104.3 118.27 108.35 120.71 111.99 124.18 C 115.63 127.66 121.59 134.95 121.9 139.45 C 122.22 143.95 116.41 147.89 113.87 151.18 C 111.33 154.47 109.98 158.16 106.64 159.18 C 103.3 160.19 97.54 158.95 93.84 157.26 C 90.14 155.57 86.29 152.3 84.45 149.04 C 82.61 145.78 82.31 141.54 82.78 137.7 C 83.24 133.86 86.02 128.08 87.25 125.99 C 88.47 123.9 89.56 125.73 90.11 125.15" fill="none" stroke="rgb(240, 240, 240)" stroke-linejoin="round" stroke-linecap="round" stroke-miterlimit="10" pointer-events="all"/></g></g><g data-cell-id="S7aDT1qXhI9r-aNUoDuf-16"><g><ellipse cx="340" cy="140" rx="20" ry="20" fill="none" stroke="none" pointer-events="all"/><path d="M 339.45 119.62 C 343.4 119.36 347.49 123.52 351.05 125.82 C 354.61 128.12 359.55 129.46 360.81 133.43 C 362.08 137.4 360.57 145.18 358.65 149.64 C 356.74 154.09 353.54 158.45 349.35 160.15 C 345.15 161.85 337.6 161.11 333.47 159.83 C 329.33 158.54 326.89 155.99 324.55 152.44 C 322.2 148.88 318.98 142.71 319.38 138.51 C 319.77 134.32 321.7 129.38 326.93 127.25 C 332.17 125.13 345.23 124.14 350.77 125.76 C 356.32 127.37 360.19 136.69 360.2 136.96 M 326.18 125.68 C 329.17 122.36 333.81 120.4 337.91 119.62 C 342.01 118.84 346.92 119.18 350.81 121.02 C 354.7 122.86 359.59 126.84 361.25 130.64 C 362.91 134.43 362.2 139.81 360.77 143.79 C 359.34 147.77 356.19 152.22 352.66 154.51 C 349.14 156.8 344.33 157.85 339.63 157.54 C 334.94 157.22 327.97 155.85 324.51 152.63 C 321.04 149.41 318.79 141.99 318.83 138.21 C 318.87 134.43 324.2 131.56 324.76 129.95 C 325.32 128.34 322.52 128.59 322.21 128.55" fill="none" stroke="rgb(240, 240, 240)" stroke-linejoin="round" stroke-linecap="round" stroke-miterlimit="10" pointer-events="all"/></g></g><g data-cell-id="S7aDT1qXhI9r-aNUoDuf-17"><g><ellipse cx="20" cy="220" rx="20" ry="20" fill="none" stroke="none" pointer-events="all"/><path d="M 7.16 203.09 C 10.26 200.76 17.87 199.94 22.75 200.41 C 27.62 200.89 33.59 202.63 36.4 205.94 C 39.21 209.26 39.69 215.85 39.61 220.31 C 39.53 224.77 38.64 229.69 35.92 232.69 C 33.21 235.69 27.54 237.75 23.34 238.32 C 19.13 238.89 14.51 237.66 10.67 236.1 C 6.84 234.55 1.69 232.62 0.35 229 C -1 225.39 -0.03 218.87 2.61 214.42 C 5.25 209.97 13.23 204.8 16.17 202.3 C 19.12 199.81 20.57 199.11 20.26 199.45 M 34.05 204.83 C 37.21 207.33 39.77 213.58 40.06 217.86 C 40.35 222.15 38.64 226.74 35.78 230.54 C 32.92 234.34 26.92 239.09 22.89 240.67 C 18.86 242.25 14.69 241.81 11.59 240.03 C 8.49 238.25 5.77 233.81 4.31 230.01 C 2.85 226.22 1.84 222.02 2.85 217.24 C 3.85 212.47 6.96 204.58 10.34 201.35 C 13.72 198.12 18.75 196.82 23.12 197.86 C 27.5 198.91 34.77 206.3 36.57 207.62 C 38.37 208.95 34.67 206.2 33.92 205.79" fill="none" stroke="rgb(240, 240, 240)" stroke-linejoin="round" stroke-linecap="round" stroke-miterlimit="10" pointer-events="all"/></g></g><g data-cell-id="S7aDT1qXhI9r-aNUoDuf-18"><g><ellipse cx="180" cy="220" rx="20" ry="20" fill="none" stroke="none" pointer-events="all"/><path d="M 195.24 207.77 C 198.36 210.79 201.88 214.85 201.52 219.3 C 201.17 223.76 196.47 231.39 193.11 234.49 C 189.74 237.58 185.53 237.53 181.34 237.88 C 177.14 238.22 171.56 238.31 167.91 236.54 C 164.26 234.76 160.81 231.38 159.44 227.24 C 158.06 223.09 158.1 215.56 159.66 211.67 C 161.22 207.78 164.94 205.98 168.82 203.89 C 172.7 201.8 177.53 196.21 182.93 199.13 C 188.33 202.05 199.24 216.29 201.23 221.4 C 203.22 226.51 195.56 230.42 194.86 229.8 M 187.07 202.5 C 190.26 203.71 194.95 208.74 196.47 212.58 C 197.98 216.41 197.36 221.72 196.16 225.5 C 194.95 229.28 192.64 232.89 189.23 235.27 C 185.81 237.64 179.16 240.15 175.65 239.75 C 172.14 239.34 170.43 235.8 168.19 232.82 C 165.95 229.84 163.11 225.65 162.19 221.86 C 161.27 218.08 160.73 213.97 162.66 210.12 C 164.59 206.28 169.63 199.83 173.78 198.78 C 177.93 197.73 184.59 203.35 187.55 203.82 C 190.5 204.29 191.1 201.34 191.5 201.58" fill="none" stroke="rgb(240, 240, 240)" stroke-linejoin="round" stroke-linecap="round" stroke-miterlimit="10" pointer-events="all"/></g></g><g data-cell-id="S7aDT1qXhI9r-aNUoDuf-19"><g><path d="M 113.47 125.22 L 200 30" fill="none" stroke="none" pointer-events="stroke"/><path d="M 113.47 125.22 C 133.58 103.93 153.69 84.24 200 30 M 113.47 125.22 C 144.2 91.87 171.89 61.53 200 30" fill="none" stroke="rgb(240, 240, 240)" stroke-linejoin="round" stroke-linecap="round" stroke-miterlimit="10" pointer-events="stroke"/></g></g><g data-cell-id="S7aDT1qXhI9r-aNUoDuf-20"><g><path d="M 34.14 205.86 L 85.86 154.14" fill="none" stroke="none" pointer-events="stroke"/><path d="M 34.14 205.86 C 44.77 196.89 61.05 180.02 85.86 154.14 M 34.14 205.86 C 53.82 188.1 69.9 171.3 85.86 154.14" fill="none" stroke="rgb(240, 240, 240)" stroke-linejoin="round" stroke-linecap="round" stroke-miterlimit="10" pointer-events="stroke"/></g></g><g data-cell-id="S7aDT1qXhI9r-aNUoDuf-21"><g><path d="M 326.74 125.03 L 241.72 29.48" fill="none" stroke="none" pointer-events="stroke"/><path d="M 326.74 125.03 C 302.78 105.05 285.08 78.44 241.72 29.48 M 326.74 125.03 C 310.88 104.79 291.71 84.14 241.72 29.48" fill="none" stroke="rgb(240, 240, 240)" stroke-linejoin="round" stroke-linecap="round" stroke-miterlimit="10" pointer-events="stroke"/></g></g><g data-cell-id="S7aDT1qXhI9r-aNUoDuf-22"><g><path d="M 165.86 205.86 L 114.14 154.14" fill="none" stroke="none" pointer-events="stroke"/><path d="M 165.86 205.86 C 155.65 193.03 143.29 184.96 114.14 154.14 M 165.86 205.86 C 150.68 192.35 137.71 175.32 114.14 154.14" fill="none" stroke="rgb(240, 240, 240)" stroke-linejoin="round" stroke-linecap="round" stroke-miterlimit="10" pointer-events="stroke"/></g></g><g data-cell-id="S7aDT1qXhI9r-aNUoDuf-23"><g><ellipse cx="256" cy="220" rx="20" ry="20" fill="none" stroke="none" pointer-events="all"/><path d="M 246.24 202.24 C 249.91 199.82 255.26 200.11 259.57 201.04 C 263.87 201.96 269.2 204.72 272.1 207.8 C 274.99 210.88 276.94 215.73 276.93 219.53 C 276.93 223.33 274.71 227.03 272.06 230.62 C 269.41 234.2 265.44 239.7 261.03 241.04 C 256.63 242.38 249.32 241.12 245.63 238.65 C 241.94 236.18 240.55 230.58 238.9 226.22 C 237.26 221.87 232.35 216.8 235.75 212.5 C 239.15 208.2 253.71 201.77 259.3 200.4 C 264.89 199.03 269.28 204.11 269.31 204.28 M 264.97 205.17 C 268.54 206.38 270.97 208.23 272.23 211.67 C 273.49 215.12 273.46 221.44 272.52 225.86 C 271.59 230.28 270.06 236.33 266.61 238.18 C 263.17 240.04 256.73 237.66 251.86 236.97 C 247 236.28 239.83 236.95 237.41 234.02 C 234.99 231.09 236.35 223.86 237.34 219.38 C 238.32 214.9 240.24 210.54 243.31 207.12 C 246.38 203.69 251.96 199.32 255.77 198.83 C 259.58 198.34 264.61 203.75 266.16 204.2 C 267.72 204.65 264.99 201.75 265.08 201.53" fill="none" stroke="rgb(240, 240, 240)" stroke-linejoin="round" stroke-linecap="round" stroke-miterlimit="10" pointer-events="all"/></g></g><g data-cell-id="S7aDT1qXhI9r-aNUoDuf-24"><g><path d="M 269.73 205.46 L 323.56 148.44" fill="none" stroke="none" pointer-events="stroke"/><path d="M 269.73 205.46 C 281.17 196.22 296.52 179.72 323.56 148.44 M 269.73 205.46 C 281.12 195.72 292.48 181.3 323.56 148.44" fill="none" stroke="rgb(240, 240, 240)" stroke-linejoin="round" stroke-linecap="round" stroke-miterlimit="10" pointer-events="stroke"/></g></g></g></g></g></svg>