<?xml version="1.0" encoding="UTF-8"?>
<!-- Do not edit this file with editors other than draw.io -->
<!DOCTYPE svg PUBLIC "-//W3C//DTD SVG 1.1//EN" "http://www.w3.org/Graphics/SVG/1.1/DTD/svg11.dtd">
<svg xmlns="http://www.w3.org/2000/svg" xmlns:xlink="http://www.w3.org/1999/xlink" version="1.1" width="437px" height="242px" viewBox="-0.5 -0.5 437 242" content="&lt;mxfile host=&quot;Electron&quot; agent=&quot;Mozilla/5.0 (Windows NT 10.0; Win64; x64) AppleWebKit/537.36 (KHTML, like Gecko) draw.io/24.7.5 Chrome/126.0.6478.183 Electron/31.3.0 Safari/537.36&quot; version=&quot;24.7.5&quot; scale=&quot;1&quot; border=&quot;0&quot;&gt;&#10;  &lt;diagram name=&quot;第 1 页&quot; id=&quot;auU6Wy1UVJdjl7qzY_JJ&quot;&gt;&#10;    &lt;mxGraphModel dx=&quot;1430&quot; dy=&quot;825&quot; grid=&quot;1&quot; gridSize=&quot;10&quot; guides=&quot;1&quot; tooltips=&quot;1&quot; connect=&quot;1&quot; arrows=&quot;1&quot; fold=&quot;1&quot; page=&quot;1&quot; pageScale=&quot;1&quot; pageWidth=&quot;827&quot; pageHeight=&quot;1169&quot; math=&quot;0&quot; shadow=&quot;0&quot;&gt;&#10;      &lt;root&gt;&#10;        &lt;mxCell id=&quot;0&quot; /&gt;&#10;        &lt;mxCell id=&quot;1&quot; parent=&quot;0&quot; /&gt;&#10;        &lt;mxCell id=&quot;ZLwQBMDApicGqsHY_AEQ-1&quot; value=&quot;&quot; style=&quot;ellipse;whiteSpace=wrap;html=1;aspect=fixed;sketch=1;curveFitting=1;jiggle=2;shadow=0;fillColor=none;&quot; vertex=&quot;1&quot; parent=&quot;1&quot;&gt;&#10;          &lt;mxGeometry x=&quot;360&quot; y=&quot;120&quot; width=&quot;40&quot; height=&quot;40&quot; as=&quot;geometry&quot; /&gt;&#10;        &lt;/mxCell&gt;&#10;        &lt;mxCell id=&quot;ZLwQBMDApicGqsHY_AEQ-2&quot; value=&quot;&quot; style=&quot;ellipse;whiteSpace=wrap;html=1;aspect=fixed;sketch=1;curveFitting=1;jiggle=2;shadow=0;fillColor=none;&quot; vertex=&quot;1&quot; parent=&quot;1&quot;&gt;&#10;          &lt;mxGeometry x=&quot;240&quot; y=&quot;240&quot; width=&quot;40&quot; height=&quot;40&quot; as=&quot;geometry&quot; /&gt;&#10;        &lt;/mxCell&gt;&#10;        &lt;mxCell id=&quot;ZLwQBMDApicGqsHY_AEQ-3&quot; value=&quot;&quot; style=&quot;ellipse;whiteSpace=wrap;html=1;aspect=fixed;sketch=1;curveFitting=1;jiggle=2;shadow=0;fillColor=none;&quot; vertex=&quot;1&quot; parent=&quot;1&quot;&gt;&#10;          &lt;mxGeometry x=&quot;480&quot; y=&quot;240&quot; width=&quot;40&quot; height=&quot;40&quot; as=&quot;geometry&quot; /&gt;&#10;        &lt;/mxCell&gt;&#10;        &lt;mxCell id=&quot;ZLwQBMDApicGqsHY_AEQ-4&quot; value=&quot;&quot; style=&quot;ellipse;whiteSpace=wrap;html=1;aspect=fixed;sketch=1;curveFitting=1;jiggle=2;shadow=0;fillColor=none;&quot; vertex=&quot;1&quot; parent=&quot;1&quot;&gt;&#10;          &lt;mxGeometry x=&quot;160&quot; y=&quot;320&quot; width=&quot;40&quot; height=&quot;40&quot; as=&quot;geometry&quot; /&gt;&#10;        &lt;/mxCell&gt;&#10;        &lt;mxCell id=&quot;ZLwQBMDApicGqsHY_AEQ-5&quot; value=&quot;&quot; style=&quot;ellipse;whiteSpace=wrap;html=1;aspect=fixed;sketch=1;curveFitting=1;jiggle=2;shadow=0;fillColor=none;&quot; vertex=&quot;1&quot; parent=&quot;1&quot;&gt;&#10;          &lt;mxGeometry x=&quot;320&quot; y=&quot;320&quot; width=&quot;40&quot; height=&quot;40&quot; as=&quot;geometry&quot; /&gt;&#10;        &lt;/mxCell&gt;&#10;        &lt;mxCell id=&quot;ZLwQBMDApicGqsHY_AEQ-6&quot; value=&quot;&quot; style=&quot;endArrow=none;html=1;rounded=0;entryX=0;entryY=0.75;entryDx=0;entryDy=0;entryPerimeter=0;sketch=1;curveFitting=1;jiggle=2;&quot; edge=&quot;1&quot; parent=&quot;1&quot; source=&quot;ZLwQBMDApicGqsHY_AEQ-2&quot; target=&quot;ZLwQBMDApicGqsHY_AEQ-1&quot;&gt;&#10;          &lt;mxGeometry width=&quot;50&quot; height=&quot;50&quot; relative=&quot;1&quot; as=&quot;geometry&quot;&gt;&#10;            &lt;mxPoint x=&quot;280&quot; y=&quot;480&quot; as=&quot;sourcePoint&quot; /&gt;&#10;            &lt;mxPoint x=&quot;330&quot; y=&quot;430&quot; as=&quot;targetPoint&quot; /&gt;&#10;          &lt;/mxGeometry&gt;&#10;        &lt;/mxCell&gt;&#10;        &lt;mxCell id=&quot;ZLwQBMDApicGqsHY_AEQ-7&quot; value=&quot;&quot; style=&quot;endArrow=none;html=1;rounded=0;entryX=0;entryY=1;entryDx=0;entryDy=0;exitX=1;exitY=0;exitDx=0;exitDy=0;sketch=1;curveFitting=1;jiggle=2;&quot; edge=&quot;1&quot; parent=&quot;1&quot; source=&quot;ZLwQBMDApicGqsHY_AEQ-4&quot; target=&quot;ZLwQBMDApicGqsHY_AEQ-2&quot;&gt;&#10;          &lt;mxGeometry width=&quot;50&quot; height=&quot;50&quot; relative=&quot;1&quot; as=&quot;geometry&quot;&gt;&#10;            &lt;mxPoint x=&quot;280&quot; y=&quot;480&quot; as=&quot;sourcePoint&quot; /&gt;&#10;            &lt;mxPoint x=&quot;330&quot; y=&quot;430&quot; as=&quot;targetPoint&quot; /&gt;&#10;          &lt;/mxGeometry&gt;&#10;        &lt;/mxCell&gt;&#10;        &lt;mxCell id=&quot;ZLwQBMDApicGqsHY_AEQ-8&quot; value=&quot;&quot; style=&quot;endArrow=none;html=1;rounded=0;entryX=1.043;entryY=0.737;entryDx=0;entryDy=0;sketch=1;curveFitting=1;jiggle=2;entryPerimeter=0;&quot; edge=&quot;1&quot; parent=&quot;1&quot; source=&quot;ZLwQBMDApicGqsHY_AEQ-3&quot; target=&quot;ZLwQBMDApicGqsHY_AEQ-1&quot;&gt;&#10;          &lt;mxGeometry width=&quot;50&quot; height=&quot;50&quot; relative=&quot;1&quot; as=&quot;geometry&quot;&gt;&#10;            &lt;mxPoint x=&quot;204&quot; y=&quot;336&quot; as=&quot;sourcePoint&quot; /&gt;&#10;            &lt;mxPoint x=&quot;256&quot; y=&quot;284&quot; as=&quot;targetPoint&quot; /&gt;&#10;          &lt;/mxGeometry&gt;&#10;        &lt;/mxCell&gt;&#10;        &lt;mxCell id=&quot;ZLwQBMDApicGqsHY_AEQ-9&quot; value=&quot;&quot; style=&quot;endArrow=none;html=1;rounded=0;entryX=1;entryY=1;entryDx=0;entryDy=0;sketch=1;curveFitting=1;jiggle=2;&quot; edge=&quot;1&quot; parent=&quot;1&quot; source=&quot;ZLwQBMDApicGqsHY_AEQ-5&quot; target=&quot;ZLwQBMDApicGqsHY_AEQ-2&quot;&gt;&#10;          &lt;mxGeometry width=&quot;50&quot; height=&quot;50&quot; relative=&quot;1&quot; as=&quot;geometry&quot;&gt;&#10;            &lt;mxPoint x=&quot;214&quot; y=&quot;346&quot; as=&quot;sourcePoint&quot; /&gt;&#10;            &lt;mxPoint x=&quot;266&quot; y=&quot;294&quot; as=&quot;targetPoint&quot; /&gt;&#10;          &lt;/mxGeometry&gt;&#10;        &lt;/mxCell&gt;&#10;        &lt;mxCell id=&quot;ZLwQBMDApicGqsHY_AEQ-10&quot; value=&quot;&quot; style=&quot;ellipse;whiteSpace=wrap;html=1;aspect=fixed;sketch=1;curveFitting=1;jiggle=2;shadow=0;fillColor=none;&quot; vertex=&quot;1&quot; parent=&quot;1&quot;&gt;&#10;          &lt;mxGeometry x=&quot;396&quot; y=&quot;320&quot; width=&quot;40&quot; height=&quot;40&quot; as=&quot;geometry&quot; /&gt;&#10;        &lt;/mxCell&gt;&#10;        &lt;mxCell id=&quot;ZLwQBMDApicGqsHY_AEQ-11&quot; value=&quot;&quot; style=&quot;endArrow=none;html=1;rounded=0;entryX=-0.009;entryY=0.703;entryDx=0;entryDy=0;sketch=1;curveFitting=1;jiggle=2;entryPerimeter=0;&quot; edge=&quot;1&quot; parent=&quot;1&quot; source=&quot;ZLwQBMDApicGqsHY_AEQ-10&quot; target=&quot;ZLwQBMDApicGqsHY_AEQ-3&quot;&gt;&#10;          &lt;mxGeometry width=&quot;50&quot; height=&quot;50&quot; relative=&quot;1&quot; as=&quot;geometry&quot;&gt;&#10;            &lt;mxPoint x=&quot;290&quot; y=&quot;346&quot; as=&quot;sourcePoint&quot; /&gt;&#10;            &lt;mxPoint x=&quot;350&quot; y=&quot;274&quot; as=&quot;targetPoint&quot; /&gt;&#10;          &lt;/mxGeometry&gt;&#10;        &lt;/mxCell&gt;&#10;        &lt;mxCell id=&quot;ZLwQBMDApicGqsHY_AEQ-12&quot; value=&quot;&quot; style=&quot;ellipse;whiteSpace=wrap;html=1;aspect=fixed;sketch=1;curveFitting=1;jiggle=2;shadow=0;fillColor=none;&quot; vertex=&quot;1&quot; parent=&quot;1&quot;&gt;&#10;          &lt;mxGeometry x=&quot;556&quot; y=&quot;320&quot; width=&quot;40&quot; height=&quot;40&quot; as=&quot;geometry&quot; /&gt;&#10;        &lt;/mxCell&gt;&#10;        &lt;mxCell id=&quot;ZLwQBMDApicGqsHY_AEQ-13&quot; value=&quot;&quot; style=&quot;endArrow=none;html=1;rounded=0;entryX=0.905;entryY=0.72;entryDx=0;entryDy=0;sketch=1;curveFitting=1;jiggle=2;entryPerimeter=0;&quot; edge=&quot;1&quot; parent=&quot;1&quot; source=&quot;ZLwQBMDApicGqsHY_AEQ-12&quot; target=&quot;ZLwQBMDApicGqsHY_AEQ-3&quot;&gt;&#10;          &lt;mxGeometry width=&quot;50&quot; height=&quot;50&quot; relative=&quot;1&quot; as=&quot;geometry&quot;&gt;&#10;            &lt;mxPoint x=&quot;450&quot; y=&quot;346&quot; as=&quot;sourcePoint&quot; /&gt;&#10;            &lt;mxPoint x=&quot;510&quot; y=&quot;274&quot; as=&quot;targetPoint&quot; /&gt;&#10;          &lt;/mxGeometry&gt;&#10;        &lt;/mxCell&gt;&#10;      &lt;/root&gt;&#10;    &lt;/mxGraphModel&gt;&#10;  &lt;/diagram&gt;&#10;&lt;/mxfile&gt;&#10;" style="background-color: rgb(24, 20, 29);"><defs/><rect fill="#18141D" width="100%" height="100%" x="0" y="0"/><g><g data-cell-id="0"><g data-cell-id="1"><g data-cell-id="ZLwQBMDApicGqsHY_AEQ-1"><g><ellipse cx="220" cy="20" rx="20" ry="20" fill="none" stroke="none" pointer-events="all"/><path d="M 207.48 5.22 C 210.3 1.71 215 -0.58 218.68 -1.12 C 222.35 -1.66 226.31 -0.82 229.51 1.99 C 232.72 4.79 236.66 11.31 237.89 15.7 C 239.12 20.08 238.36 24.57 236.9 28.28 C 235.43 31.99 232.43 36.29 229.12 37.98 C 225.8 39.67 220.97 39.21 217.01 38.42 C 213.05 37.63 208.04 36.51 205.35 33.23 C 202.65 29.96 196.76 23.8 200.84 18.77 C 204.93 13.74 223.47 2.16 229.86 3.06 C 236.25 3.95 239.33 24.04 239.18 24.16 M 235.8 5.29 C 239.24 8.07 239.76 13.24 239.4 18.03 C 239.05 22.83 235.76 30.81 233.67 34.05 C 231.58 37.3 230.24 37.02 226.89 37.51 C 223.54 38 218.11 38.89 213.56 36.99 C 209.02 35.08 201.87 29.41 199.61 26.05 C 197.36 22.69 198.24 20.72 200.06 16.84 C 201.88 12.96 207.26 5.35 210.53 2.78 C 213.81 0.21 216.02 1.07 219.72 1.42 C 223.41 1.77 230.57 3.98 232.7 4.86 C 234.82 5.74 232.77 6.74 232.49 6.69" fill="none" stroke="rgb(240, 240, 240)" stroke-linejoin="round" stroke-linecap="round" stroke-miterlimit="10" pointer-events="all"/></g></g><g data-cell-id="ZLwQBMDApicGqsHY_AEQ-2"><g><ellipse cx="100" cy="140" rx="20" ry="20" fill="none" stroke="none" pointer-events="all"/><path d="M 111.87 123.83 C 115.29 126.33 120.86 133 121.59 137.33 C 122.32 141.65 118.4 145.91 116.25 149.78 C 114.1 153.66 112.31 159.21 108.71 160.57 C 105.12 161.92 98.98 159.94 94.67 157.93 C 90.36 155.92 85.2 152.02 82.86 148.49 C 80.51 144.96 79.75 140.37 80.59 136.75 C 81.43 133.13 84.42 129.78 87.9 126.76 C 91.39 123.74 96.19 116.89 101.5 118.63 C 106.81 120.37 117.3 132.12 119.75 137.19 C 122.2 142.26 116.49 149.15 116.21 149.06 M 108.85 122.91 C 112.34 124.41 114 128.38 115.87 132.73 C 117.74 137.09 120.53 144.8 120.1 149.04 C 119.66 153.28 117 155.88 113.25 158.16 C 109.5 160.45 102.57 163.3 97.61 162.76 C 92.64 162.21 86.49 158.44 83.44 154.89 C 80.4 151.34 79.45 146.35 79.35 141.45 C 79.24 136.56 79.98 128.71 82.82 125.51 C 85.65 122.31 91.89 123.02 96.37 122.27 C 100.85 121.52 107.42 120.99 109.7 121.01 C 111.99 121.04 110.23 121.83 110.1 122.43" fill="none" stroke="rgb(240, 240, 240)" stroke-linejoin="round" stroke-linecap="round" stroke-miterlimit="10" pointer-events="all"/></g></g><g data-cell-id="ZLwQBMDApicGqsHY_AEQ-3"><g><ellipse cx="340" cy="140" rx="20" ry="20" fill="none" stroke="none" pointer-events="all"/><path d="M 343.95 119.92 C 348.03 120.33 351.79 122.93 354.32 126.5 C 356.86 130.08 358.91 137.26 359.17 141.39 C 359.43 145.52 358.5 147.9 355.88 151.26 C 353.25 154.62 347.76 160.45 343.42 161.54 C 339.08 162.63 333.72 160.08 329.84 157.79 C 325.96 155.5 321.49 152.15 320.13 147.78 C 318.77 143.41 320.23 135.57 321.66 131.59 C 323.1 127.61 324.23 125.26 328.72 123.9 C 333.21 122.53 344.77 123.26 348.61 123.39 C 352.45 123.53 351.81 124.53 351.76 124.7 M 341.06 122.17 C 345.24 123.23 353.68 125.59 356.63 128.13 C 359.58 130.68 359.43 133.61 358.77 137.46 C 358.1 141.31 355.43 147.38 352.62 151.26 C 349.81 155.13 345.89 159.83 341.9 160.7 C 337.9 161.57 332.2 158.94 328.64 156.49 C 325.07 154.04 321.49 149.51 320.48 145.99 C 319.47 142.47 321.4 138.88 322.56 135.37 C 323.71 131.86 323.53 127.69 327.41 124.93 C 331.3 122.17 343.62 119.65 345.86 118.8 C 348.1 117.94 340.84 119.55 340.87 119.78" fill="none" stroke="rgb(240, 240, 240)" stroke-linejoin="round" stroke-linecap="round" stroke-miterlimit="10" pointer-events="all"/></g></g><g data-cell-id="ZLwQBMDApicGqsHY_AEQ-4"><g><ellipse cx="20" cy="220" rx="20" ry="20" fill="none" stroke="none" pointer-events="all"/><path d="M 11.2 201.18 C 14.86 200.07 22.8 201.79 27.08 203.11 C 31.35 204.42 34.86 205.81 36.85 209.06 C 38.83 212.32 39.92 218.14 38.97 222.63 C 38.03 227.12 34.45 233.35 31.19 236 C 27.92 238.64 23.16 238.35 19.39 238.51 C 15.62 238.67 11.75 239.68 8.58 236.95 C 5.41 234.23 1.37 226.7 0.38 222.16 C -0.61 217.61 0.04 213.07 2.63 209.67 C 5.22 206.28 12.74 203.67 15.94 201.8 C 19.13 199.92 21.63 198.24 21.82 198.45 M 18.93 197.24 C 22.43 196.82 26.2 202.28 29.98 204.72 C 33.75 207.15 40.49 207.8 41.59 211.88 C 42.7 215.95 38.21 225 36.59 229.16 C 34.97 233.32 35.51 234.61 31.87 236.83 C 28.23 239.05 19.51 243.65 14.75 242.5 C 10 241.34 6.13 233.68 3.35 229.91 C 0.56 226.13 -2.31 223.32 -1.97 219.86 C -1.63 216.41 2.43 212.76 5.37 209.18 C 8.31 205.61 13.69 200.11 15.68 198.39 C 17.67 196.68 17.12 198.07 17.31 198.9" fill="none" stroke="rgb(240, 240, 240)" stroke-linejoin="round" stroke-linecap="round" stroke-miterlimit="10" pointer-events="all"/></g></g><g data-cell-id="ZLwQBMDApicGqsHY_AEQ-5"><g><ellipse cx="180" cy="220" rx="20" ry="20" fill="none" stroke="none" pointer-events="all"/><path d="M 164.27 207.37 C 167.22 203.83 173.78 201.32 178.07 200.65 C 182.36 199.99 186.86 201.32 190 203.4 C 193.13 205.48 195.3 209.29 196.9 213.13 C 198.49 216.98 200.88 222.31 199.55 226.45 C 198.22 230.6 192.77 236.05 188.9 237.99 C 185.04 239.92 180.48 239.11 176.37 238.08 C 172.27 237.04 166.8 234.44 164.26 231.77 C 161.71 229.1 159.29 226.98 161.1 222.04 C 162.91 217.09 170.32 205.08 175.13 202.11 C 179.94 199.13 189.73 203.96 189.96 204.19 M 171.04 200.14 C 174.49 198.31 178.05 201.73 182.32 202.85 C 186.6 203.96 193.91 203.92 196.66 206.84 C 199.42 209.75 199.13 216.27 198.86 220.35 C 198.58 224.44 197.94 227.93 195.01 231.32 C 192.08 234.71 185.84 239.48 181.28 240.71 C 176.73 241.94 171 241.42 167.68 238.7 C 164.35 235.99 161.84 229.45 161.34 224.45 C 160.84 219.44 162.95 212.79 164.68 208.69 C 166.42 204.58 170.19 201.3 171.74 199.82 C 173.29 198.34 173.63 199.41 173.99 199.82" fill="none" stroke="rgb(240, 240, 240)" stroke-linejoin="round" stroke-linecap="round" stroke-miterlimit="10" pointer-events="all"/></g></g><g data-cell-id="ZLwQBMDApicGqsHY_AEQ-6"><g><path d="M 113.48 125.22 L 200 30" fill="none" stroke="none" pointer-events="stroke"/><path d="M 113.48 125.22 C 133.65 103.45 154.15 80.25 200 30 M 113.48 125.22 C 142.3 93.13 172.37 60.06 200 30" fill="none" stroke="rgb(240, 240, 240)" stroke-linejoin="round" stroke-linecap="round" stroke-miterlimit="10" pointer-events="stroke"/></g></g><g data-cell-id="ZLwQBMDApicGqsHY_AEQ-7"><g><path d="M 34.14 205.86 L 85.86 154.14" fill="none" stroke="none" pointer-events="stroke"/><path d="M 34.14 205.86 C 43.92 193.82 61.74 181.41 85.86 154.14 M 34.14 205.86 C 46.51 195.12 56.84 182.45 85.86 154.14" fill="none" stroke="rgb(240, 240, 240)" stroke-linejoin="round" stroke-linecap="round" stroke-miterlimit="10" pointer-events="stroke"/></g></g><g data-cell-id="ZLwQBMDApicGqsHY_AEQ-8"><g><path d="M 326.72 125.04 L 241.72 29.48" fill="none" stroke="none" pointer-events="stroke"/><path d="M 326.72 125.04 C 308.68 99.2 283.49 76.72 241.72 29.48 M 326.72 125.04 C 300.05 99.01 276.67 68.05 241.72 29.48" fill="none" stroke="rgb(240, 240, 240)" stroke-linejoin="round" stroke-linecap="round" stroke-miterlimit="10" pointer-events="stroke"/></g></g><g data-cell-id="ZLwQBMDApicGqsHY_AEQ-9"><g><path d="M 165.86 205.86 L 114.14 154.14" fill="none" stroke="none" pointer-events="stroke"/><path d="M 165.86 205.86 C 154 190.17 142.4 178.56 114.14 154.14 M 165.86 205.86 C 148.04 187.7 125.96 168.46 114.14 154.14" fill="none" stroke="rgb(240, 240, 240)" stroke-linejoin="round" stroke-linecap="round" stroke-miterlimit="10" pointer-events="stroke"/></g></g><g data-cell-id="ZLwQBMDApicGqsHY_AEQ-10"><g><ellipse cx="256" cy="220" rx="20" ry="20" fill="none" stroke="none" pointer-events="all"/><path d="M 259.82 202.24 C 264.28 203.13 270.97 205.81 273.73 209.31 C 276.49 212.81 276.97 219.28 276.37 223.23 C 275.77 227.19 273.43 230.51 270.15 233.02 C 266.87 235.53 260.72 237.7 256.67 238.29 C 252.61 238.88 249 238.43 245.83 236.55 C 242.66 234.67 239 231.37 237.64 227.02 C 236.27 222.67 235.96 214.75 237.66 210.44 C 239.36 206.13 243.07 202.42 247.82 201.17 C 252.57 199.92 262.51 201.7 266.16 202.93 C 269.82 204.15 269.62 207.99 269.74 208.52 M 251.48 198.68 C 256.22 198.26 264.29 202.02 268.07 204.84 C 271.86 207.66 272.58 211.77 274.19 215.59 C 275.8 219.41 278.59 224.54 277.71 227.77 C 276.82 231.01 272.78 232.91 268.88 235 C 264.98 237.09 258.47 240.28 254.29 240.3 C 250.11 240.32 247.27 238.24 243.82 235.13 C 240.36 232.02 234.19 226.51 233.57 221.63 C 232.94 216.75 237.49 209.69 240.06 205.87 C 242.63 202.04 247.08 199.67 248.99 198.7 C 250.9 197.73 250.72 199.05 251.52 200.02" fill="none" stroke="rgb(240, 240, 240)" stroke-linejoin="round" stroke-linecap="round" stroke-miterlimit="10" pointer-events="all"/></g></g><g data-cell-id="ZLwQBMDApicGqsHY_AEQ-11"><g><path d="M 269.25 205.02 L 319.64 148.12" fill="none" stroke="none" pointer-events="stroke"/><path d="M 269.25 205.02 C 276.76 191.8 291.2 179.94 319.64 148.12 M 269.25 205.02 C 282.8 189.22 298.06 169.82 319.64 148.12" fill="none" stroke="rgb(240, 240, 240)" stroke-linejoin="round" stroke-linecap="round" stroke-miterlimit="10" pointer-events="stroke"/></g></g><g data-cell-id="ZLwQBMDApicGqsHY_AEQ-12"><g><ellipse cx="416" cy="220" rx="20" ry="20" fill="none" stroke="none" pointer-events="all"/><path d="M 403.55 203.82 C 405.91 201.29 410 201.56 414.23 201.65 C 418.46 201.73 425.12 202.06 428.93 204.33 C 432.74 206.61 436.24 211.24 437.08 215.32 C 437.93 219.39 436.04 224.86 434 228.76 C 431.95 232.65 428.39 237.04 424.81 238.7 C 421.24 240.37 416.98 240.07 412.56 238.76 C 408.14 237.46 401.32 234.3 398.32 230.88 C 395.31 227.46 392.15 223.29 394.54 218.26 C 396.94 213.23 407.14 203.15 412.69 200.71 C 418.24 198.27 427.43 203.69 427.85 203.64 M 402.89 206.98 C 405.03 203.02 407.88 198.77 412.07 197.79 C 416.27 196.82 424.5 198.1 428.06 201.13 C 431.63 204.15 432.62 211.45 433.47 215.94 C 434.33 220.42 434.23 224.03 433.17 228.03 C 432.1 232.04 430.26 238.22 427.08 239.96 C 423.89 241.69 418.09 240.09 414.06 238.44 C 410.02 236.79 406.01 233.46 402.87 230.06 C 399.73 226.66 395.31 222.37 395.22 218.03 C 395.12 213.7 401.5 206.35 402.3 204.06 C 403.1 201.77 399.94 203.24 400.04 204.31" fill="none" stroke="rgb(240, 240, 240)" stroke-linejoin="round" stroke-linecap="round" stroke-miterlimit="10" pointer-events="all"/></g></g><g data-cell-id="ZLwQBMDApicGqsHY_AEQ-13"><g><path d="M 403.18 204.65 L 356.2 148.8" fill="none" stroke="none" pointer-events="stroke"/><path d="M 403.18 204.65 C 393.61 196.71 383.21 185.86 356.2 148.8 M 403.18 204.65 C 392.35 192.9 378.79 177.82 356.2 148.8" fill="none" stroke="rgb(240, 240, 240)" stroke-linejoin="round" stroke-linecap="round" stroke-miterlimit="10" pointer-events="stroke"/></g></g></g></g></g></svg>