<?xml version="1.0" encoding="UTF-8"?>
<!-- Do not edit this file with editors other than draw.io -->
<!DOCTYPE svg PUBLIC "-//W3C//DTD SVG 1.1//EN" "http://www.w3.org/Graphics/SVG/1.1/DTD/svg11.dtd">
<svg xmlns="http://www.w3.org/2000/svg" xmlns:xlink="http://www.w3.org/1999/xlink" version="1.1" width="281px" height="201px" viewBox="-0.5 -0.5 281 201" content="&lt;mxfile host=&quot;Electron&quot; agent=&quot;Mozilla/5.0 (Windows NT 10.0; Win64; x64) AppleWebKit/537.36 (KHTML, like Gecko) draw.io/24.7.5 Chrome/126.0.6478.183 Electron/31.3.0 Safari/537.36&quot; version=&quot;24.7.5&quot; scale=&quot;1&quot; border=&quot;0&quot;&gt;&#10;  &lt;diagram name=&quot;第 1 页&quot; id=&quot;jy1TVek64ZTSS9d4jHHz&quot;&gt;&#10;    &lt;mxGraphModel dx=&quot;988&quot; dy=&quot;570&quot; grid=&quot;1&quot; gridSize=&quot;10&quot; guides=&quot;1&quot; tooltips=&quot;1&quot; connect=&quot;1&quot; arrows=&quot;1&quot; fold=&quot;1&quot; page=&quot;1&quot; pageScale=&quot;1&quot; pageWidth=&quot;827&quot; pageHeight=&quot;1169&quot; math=&quot;0&quot; shadow=&quot;0&quot;&gt;&#10;      &lt;root&gt;&#10;        &lt;mxCell id=&quot;0&quot; /&gt;&#10;        &lt;mxCell id=&quot;1&quot; parent=&quot;0&quot; /&gt;&#10;        &lt;mxCell id=&quot;S7aDT1qXhI9r-aNUoDuf-14&quot; value=&quot;&quot; style=&quot;ellipse;whiteSpace=wrap;html=1;aspect=fixed;sketch=1;curveFitting=1;jiggle=2;shadow=0;fillColor=none;&quot; vertex=&quot;1&quot; parent=&quot;1&quot;&gt;&#10;          &lt;mxGeometry x=&quot;360&quot; y=&quot;80&quot; width=&quot;40&quot; height=&quot;40&quot; as=&quot;geometry&quot; /&gt;&#10;        &lt;/mxCell&gt;&#10;        &lt;mxCell id=&quot;S7aDT1qXhI9r-aNUoDuf-15&quot; value=&quot;&quot; style=&quot;ellipse;whiteSpace=wrap;html=1;aspect=fixed;sketch=1;curveFitting=1;jiggle=2;shadow=0;fillColor=none;&quot; vertex=&quot;1&quot; parent=&quot;1&quot;&gt;&#10;          &lt;mxGeometry x=&quot;280&quot; y=&quot;160&quot; width=&quot;40&quot; height=&quot;40&quot; as=&quot;geometry&quot; /&gt;&#10;        &lt;/mxCell&gt;&#10;        &lt;mxCell id=&quot;S7aDT1qXhI9r-aNUoDuf-16&quot; value=&quot;&quot; style=&quot;ellipse;whiteSpace=wrap;html=1;aspect=fixed;sketch=1;curveFitting=1;jiggle=2;shadow=0;fillColor=none;&quot; vertex=&quot;1&quot; parent=&quot;1&quot;&gt;&#10;          &lt;mxGeometry x=&quot;440&quot; y=&quot;160&quot; width=&quot;40&quot; height=&quot;40&quot; as=&quot;geometry&quot; /&gt;&#10;        &lt;/mxCell&gt;&#10;        &lt;mxCell id=&quot;S7aDT1qXhI9r-aNUoDuf-17&quot; value=&quot;&quot; style=&quot;ellipse;whiteSpace=wrap;html=1;aspect=fixed;sketch=1;curveFitting=1;jiggle=2;shadow=0;fillColor=none;&quot; vertex=&quot;1&quot; parent=&quot;1&quot;&gt;&#10;          &lt;mxGeometry x=&quot;200&quot; y=&quot;240&quot; width=&quot;40&quot; height=&quot;40&quot; as=&quot;geometry&quot; /&gt;&#10;        &lt;/mxCell&gt;&#10;        &lt;mxCell id=&quot;S7aDT1qXhI9r-aNUoDuf-18&quot; value=&quot;&quot; style=&quot;ellipse;whiteSpace=wrap;html=1;aspect=fixed;sketch=1;curveFitting=1;jiggle=2;shadow=0;fillColor=none;&quot; vertex=&quot;1&quot; parent=&quot;1&quot;&gt;&#10;          &lt;mxGeometry x=&quot;360&quot; y=&quot;240&quot; width=&quot;40&quot; height=&quot;40&quot; as=&quot;geometry&quot; /&gt;&#10;        &lt;/mxCell&gt;&#10;        &lt;mxCell id=&quot;S7aDT1qXhI9r-aNUoDuf-19&quot; value=&quot;&quot; style=&quot;endArrow=none;html=1;rounded=0;entryX=0;entryY=0.75;entryDx=0;entryDy=0;entryPerimeter=0;sketch=1;curveFitting=1;jiggle=2;&quot; edge=&quot;1&quot; parent=&quot;1&quot; source=&quot;S7aDT1qXhI9r-aNUoDuf-15&quot; target=&quot;S7aDT1qXhI9r-aNUoDuf-14&quot;&gt;&#10;          &lt;mxGeometry width=&quot;50&quot; height=&quot;50&quot; relative=&quot;1&quot; as=&quot;geometry&quot;&gt;&#10;            &lt;mxPoint x=&quot;320&quot; y=&quot;400&quot; as=&quot;sourcePoint&quot; /&gt;&#10;            &lt;mxPoint x=&quot;370&quot; y=&quot;350&quot; as=&quot;targetPoint&quot; /&gt;&#10;          &lt;/mxGeometry&gt;&#10;        &lt;/mxCell&gt;&#10;        &lt;mxCell id=&quot;S7aDT1qXhI9r-aNUoDuf-20&quot; value=&quot;&quot; style=&quot;endArrow=none;html=1;rounded=0;entryX=0;entryY=1;entryDx=0;entryDy=0;exitX=1;exitY=0;exitDx=0;exitDy=0;sketch=1;curveFitting=1;jiggle=2;&quot; edge=&quot;1&quot; parent=&quot;1&quot; source=&quot;S7aDT1qXhI9r-aNUoDuf-17&quot; target=&quot;S7aDT1qXhI9r-aNUoDuf-15&quot;&gt;&#10;          &lt;mxGeometry width=&quot;50&quot; height=&quot;50&quot; relative=&quot;1&quot; as=&quot;geometry&quot;&gt;&#10;            &lt;mxPoint x=&quot;320&quot; y=&quot;400&quot; as=&quot;sourcePoint&quot; /&gt;&#10;            &lt;mxPoint x=&quot;370&quot; y=&quot;350&quot; as=&quot;targetPoint&quot; /&gt;&#10;          &lt;/mxGeometry&gt;&#10;        &lt;/mxCell&gt;&#10;        &lt;mxCell id=&quot;S7aDT1qXhI9r-aNUoDuf-21&quot; value=&quot;&quot; style=&quot;endArrow=none;html=1;rounded=0;entryX=1.043;entryY=0.737;entryDx=0;entryDy=0;sketch=1;curveFitting=1;jiggle=2;entryPerimeter=0;&quot; edge=&quot;1&quot; parent=&quot;1&quot; source=&quot;S7aDT1qXhI9r-aNUoDuf-16&quot; target=&quot;S7aDT1qXhI9r-aNUoDuf-14&quot;&gt;&#10;          &lt;mxGeometry width=&quot;50&quot; height=&quot;50&quot; relative=&quot;1&quot; as=&quot;geometry&quot;&gt;&#10;            &lt;mxPoint x=&quot;244&quot; y=&quot;256&quot; as=&quot;sourcePoint&quot; /&gt;&#10;            &lt;mxPoint x=&quot;296&quot; y=&quot;204&quot; as=&quot;targetPoint&quot; /&gt;&#10;          &lt;/mxGeometry&gt;&#10;        &lt;/mxCell&gt;&#10;        &lt;mxCell id=&quot;S7aDT1qXhI9r-aNUoDuf-22&quot; value=&quot;&quot; style=&quot;endArrow=none;html=1;rounded=0;entryX=1;entryY=1;entryDx=0;entryDy=0;sketch=1;curveFitting=1;jiggle=2;&quot; edge=&quot;1&quot; parent=&quot;1&quot; source=&quot;S7aDT1qXhI9r-aNUoDuf-18&quot; target=&quot;S7aDT1qXhI9r-aNUoDuf-15&quot;&gt;&#10;          &lt;mxGeometry width=&quot;50&quot; height=&quot;50&quot; relative=&quot;1&quot; as=&quot;geometry&quot;&gt;&#10;            &lt;mxPoint x=&quot;254&quot; y=&quot;266&quot; as=&quot;sourcePoint&quot; /&gt;&#10;            &lt;mxPoint x=&quot;306&quot; y=&quot;214&quot; as=&quot;targetPoint&quot; /&gt;&#10;          &lt;/mxGeometry&gt;&#10;        &lt;/mxCell&gt;&#10;      &lt;/root&gt;&#10;    &lt;/mxGraphModel&gt;&#10;  &lt;/diagram&gt;&#10;&lt;/mxfile&gt;&#10;" style="background-color: rgb(24, 20, 29);"><defs/><rect fill="#18141D" width="100%" height="100%" x="0" y="0"/><g><g data-cell-id="0"><g data-cell-id="1"><g data-cell-id="S7aDT1qXhI9r-aNUoDuf-14"><g><ellipse cx="180" cy="20" rx="20" ry="20" fill="none" stroke="none" pointer-events="all"/><path d="M 198.33 7.86 C 200.88 11.58 201.25 18.93 200.6 23.18 C 199.94 27.43 197.76 30.68 194.4 33.35 C 191.04 36.03 184.75 38.74 180.45 39.22 C 176.15 39.7 171.92 38.56 168.6 36.21 C 165.28 33.87 161.58 29.36 160.53 25.16 C 159.48 20.96 160.37 14.88 162.29 10.99 C 164.22 7.11 168.47 3.41 172.09 1.85 C 175.72 0.29 179.81 -0.16 184.02 1.65 C 188.24 3.47 195.12 10.2 197.4 12.73 C 199.67 15.26 197.85 16.71 197.68 16.81 M 174.12 2.33 C 177.9 0.4 184.12 -1.61 188.08 -0.56 C 192.04 0.5 195.75 4.82 197.86 8.65 C 199.97 12.49 201.79 17.62 200.72 22.43 C 199.65 27.24 194.89 34.24 191.46 37.52 C 188.03 40.79 183.91 42.43 180.14 42.07 C 176.36 41.7 172.16 38.22 168.82 35.32 C 165.47 32.42 161.11 28.61 160.06 24.67 C 159.01 20.72 159.71 15.18 162.5 11.66 C 165.29 8.14 175.03 4.94 176.79 3.54 C 178.55 2.14 173.66 3.36 173.05 3.23" fill="none" stroke="rgb(240, 240, 240)" stroke-linejoin="round" stroke-linecap="round" stroke-miterlimit="10" pointer-events="all"/></g></g><g data-cell-id="S7aDT1qXhI9r-aNUoDuf-15"><g><ellipse cx="100" cy="100" rx="20" ry="20" fill="none" stroke="none" pointer-events="all"/><path d="M 108.05 81.38 C 112.46 82.66 118.22 87.32 120.23 91.45 C 122.24 95.57 121.33 101.93 120.12 106.13 C 118.92 110.32 116.91 114.5 113.01 116.61 C 109.1 118.72 101.33 119.51 96.68 118.79 C 92.03 118.07 88.08 115.12 85.1 112.31 C 82.12 109.49 79.05 105.83 78.8 101.88 C 78.55 97.94 80.95 92.29 83.62 88.63 C 86.3 84.96 89.31 79.19 94.86 79.9 C 100.4 80.62 112.62 88.58 116.91 92.92 C 121.19 97.26 120.69 105.84 120.56 105.96 M 86.62 86.25 C 89.16 83.01 95.85 78.96 100.07 78.61 C 104.3 78.27 108.35 80.71 111.99 84.18 C 115.63 87.66 121.59 94.95 121.9 99.45 C 122.22 103.95 116.41 107.89 113.87 111.18 C 111.33 114.47 109.98 118.16 106.64 119.18 C 103.3 120.19 97.54 118.95 93.84 117.26 C 90.14 115.57 86.29 112.3 84.45 109.04 C 82.61 105.78 82.31 101.54 82.78 97.7 C 83.24 93.86 86.02 88.08 87.25 85.99 C 88.47 83.9 89.56 85.73 90.11 85.15" fill="none" stroke="rgb(240, 240, 240)" stroke-linejoin="round" stroke-linecap="round" stroke-miterlimit="10" pointer-events="all"/></g></g><g data-cell-id="S7aDT1qXhI9r-aNUoDuf-16"><g><ellipse cx="260" cy="100" rx="20" ry="20" fill="none" stroke="none" pointer-events="all"/><path d="M 259.45 79.62 C 263.4 79.36 267.49 83.52 271.05 85.82 C 274.61 88.12 279.55 89.46 280.81 93.43 C 282.08 97.4 280.57 105.18 278.65 109.64 C 276.74 114.09 273.54 118.45 269.35 120.15 C 265.15 121.85 257.6 121.11 253.47 119.83 C 249.33 118.54 246.89 115.99 244.55 112.44 C 242.2 108.88 238.98 102.71 239.38 98.51 C 239.77 94.32 241.7 89.38 246.93 87.25 C 252.17 85.13 265.23 84.14 270.77 85.76 C 276.32 87.37 280.19 96.69 280.2 96.96 M 246.18 85.68 C 249.17 82.36 253.81 80.4 257.91 79.62 C 262.01 78.84 266.92 79.18 270.81 81.02 C 274.7 82.86 279.59 86.84 281.25 90.64 C 282.91 94.43 282.2 99.81 280.77 103.79 C 279.34 107.77 276.19 112.22 272.66 114.51 C 269.14 116.8 264.33 117.85 259.63 117.54 C 254.94 117.22 247.97 115.85 244.51 112.63 C 241.04 109.41 238.79 101.99 238.83 98.21 C 238.87 94.43 244.2 91.56 244.76 89.95 C 245.32 88.34 242.52 88.59 242.21 88.55" fill="none" stroke="rgb(240, 240, 240)" stroke-linejoin="round" stroke-linecap="round" stroke-miterlimit="10" pointer-events="all"/></g></g><g data-cell-id="S7aDT1qXhI9r-aNUoDuf-17"><g><ellipse cx="20" cy="180" rx="20" ry="20" fill="none" stroke="none" pointer-events="all"/><path d="M 7.16 163.09 C 10.26 160.76 17.87 159.94 22.75 160.41 C 27.62 160.89 33.59 162.63 36.4 165.94 C 39.21 169.26 39.69 175.85 39.61 180.31 C 39.53 184.77 38.64 189.69 35.92 192.69 C 33.21 195.69 27.54 197.75 23.34 198.32 C 19.13 198.89 14.51 197.66 10.67 196.1 C 6.84 194.55 1.69 192.62 0.35 189 C -1 185.39 -0.03 178.87 2.61 174.42 C 5.25 169.97 13.23 164.8 16.17 162.3 C 19.12 159.81 20.57 159.11 20.26 159.45 M 34.05 164.83 C 37.21 167.33 39.77 173.58 40.06 177.86 C 40.35 182.15 38.64 186.74 35.78 190.54 C 32.92 194.34 26.92 199.09 22.89 200.67 C 18.86 202.25 14.69 201.81 11.59 200.03 C 8.49 198.25 5.77 193.81 4.31 190.01 C 2.85 186.22 1.84 182.02 2.85 177.24 C 3.85 172.47 6.96 164.58 10.34 161.35 C 13.72 158.12 18.75 156.82 23.12 157.86 C 27.5 158.91 34.77 166.3 36.57 167.62 C 38.37 168.95 34.67 166.2 33.92 165.79" fill="none" stroke="rgb(240, 240, 240)" stroke-linejoin="round" stroke-linecap="round" stroke-miterlimit="10" pointer-events="all"/></g></g><g data-cell-id="S7aDT1qXhI9r-aNUoDuf-18"><g><ellipse cx="180" cy="180" rx="20" ry="20" fill="none" stroke="none" pointer-events="all"/><path d="M 195.24 167.77 C 198.36 170.79 201.88 174.85 201.52 179.3 C 201.17 183.76 196.47 191.39 193.11 194.49 C 189.74 197.58 185.53 197.53 181.34 197.88 C 177.14 198.22 171.56 198.31 167.91 196.54 C 164.26 194.76 160.81 191.38 159.44 187.24 C 158.06 183.09 158.1 175.56 159.66 171.67 C 161.22 167.78 164.94 165.98 168.82 163.89 C 172.7 161.8 177.53 156.21 182.93 159.13 C 188.33 162.05 199.24 176.29 201.23 181.4 C 203.22 186.51 195.56 190.42 194.86 189.8 M 187.07 162.5 C 190.26 163.71 194.95 168.74 196.47 172.58 C 197.98 176.41 197.36 181.72 196.16 185.5 C 194.95 189.28 192.64 192.89 189.23 195.27 C 185.81 197.64 179.16 200.15 175.65 199.75 C 172.14 199.34 170.43 195.8 168.19 192.82 C 165.95 189.84 163.11 185.65 162.19 181.86 C 161.27 178.08 160.73 173.97 162.66 170.12 C 164.59 166.28 169.63 159.83 173.78 158.78 C 177.93 157.73 184.59 163.35 187.55 163.82 C 190.5 164.29 191.1 161.34 191.5 161.58" fill="none" stroke="rgb(240, 240, 240)" stroke-linejoin="round" stroke-linecap="round" stroke-miterlimit="10" pointer-events="all"/></g></g><g data-cell-id="S7aDT1qXhI9r-aNUoDuf-19"><g><path d="M 113.02 84.81 L 160 30" fill="none" stroke="none" pointer-events="stroke"/><path d="M 113.02 84.81 C 124.52 73.24 135.49 62.9 160 30 M 113.02 84.81 C 130.17 65 144.13 48.69 160 30" fill="none" stroke="rgb(240, 240, 240)" stroke-linejoin="round" stroke-linecap="round" stroke-miterlimit="10" pointer-events="stroke"/></g></g><g data-cell-id="S7aDT1qXhI9r-aNUoDuf-20"><g><path d="M 34.14 165.86 L 85.86 114.14" fill="none" stroke="none" pointer-events="stroke"/><path d="M 34.14 165.86 C 44.77 156.89 61.05 140.02 85.86 114.14 M 34.14 165.86 C 53.82 148.1 69.9 131.3 85.86 114.14" fill="none" stroke="rgb(240, 240, 240)" stroke-linejoin="round" stroke-linecap="round" stroke-miterlimit="10" pointer-events="stroke"/></g></g><g data-cell-id="S7aDT1qXhI9r-aNUoDuf-21"><g><path d="M 247.28 84.57 L 201.72 29.48" fill="none" stroke="none" pointer-events="stroke"/><path d="M 247.28 84.57 C 232.91 73.84 224.34 56.59 201.72 29.48 M 247.28 84.57 C 238.87 73.15 227.72 60.72 201.72 29.48" fill="none" stroke="rgb(240, 240, 240)" stroke-linejoin="round" stroke-linecap="round" stroke-miterlimit="10" pointer-events="stroke"/></g></g><g data-cell-id="S7aDT1qXhI9r-aNUoDuf-22"><g><path d="M 165.86 165.86 L 114.14 114.14" fill="none" stroke="none" pointer-events="stroke"/><path d="M 165.86 165.86 C 155.65 153.03 143.29 144.96 114.14 114.14 M 165.86 165.86 C 150.68 152.35 137.71 135.32 114.14 114.14" fill="none" stroke="rgb(240, 240, 240)" stroke-linejoin="round" stroke-linecap="round" stroke-miterlimit="10" pointer-events="stroke"/></g></g></g></g></g></svg>